<?xml version="1.0" standalone="no"?>
<!DOCTYPE svg PUBLIC "-//W3C//DTD SVG 20010904//EN"
 "http://www.w3.org/TR/2001/REC-SVG-20010904/DTD/svg10.dtd">
<svg version="1.0" xmlns="http://www.w3.org/2000/svg"
 width="1195.000000pt" height="1280.000000pt" viewBox="0 0 1195.000000 1280.000000"
 preserveAspectRatio="xMidYMid meet">
<metadata>
Created by potrace 1.15, written by Peter Selinger 2001-2017
</metadata>
<g transform="translate(0.000000,1280.000000) scale(0.100000,-0.100000)"
fill="#000000" stroke="none">
<path d="M7620 12791 c0 -5 68 -90 151 -188 182 -215 262 -320 383 -506 334
-512 589 -1120 697 -1659 33 -167 42 -321 36 -623 -8 -410 -43 -654 -128 -884
-181 -488 -322 -681 -1089 -1491 -475 -502 -618 -684 -707 -900 -66 -159 -82
-342 -40 -460 31 -86 59 -129 169 -257 205 -238 238 -302 238 -453 0 -190 -54
-314 -200 -461 -138 -138 -303 -256 -346 -247 -23 4 -59 90 -273 643 -346 892
-513 1296 -536 1298 -15 2 -141 -313 -540 -1348 -156 -405 -234 -598 -245
-609 -25 -25 -221 113 -366 258 -86 86 -107 114 -142 186 -53 111 -76 219 -69
320 7 111 48 180 216 365 141 155 190 243 212 388 30 193 -22 373 -176 602
-123 184 -259 341 -679 780 -458 479 -661 725 -818 995 -151 258 -269 614
-303 915 -34 304 -10 732 61 1095 85 428 300 923 647 1490 104 169 317 488
414 618 46 63 83 116 80 118 -7 7 -151 -33 -252 -71 -137 -51 -267 -113 -487
-233 -513 -279 -784 -485 -1142 -868 -77 -82 -174 -186 -217 -230 l-77 -81
-17 86 c-10 47 -22 142 -29 210 -7 79 -15 126 -23 128 -23 8 -140 -124 -225
-253 -203 -306 -384 -695 -565 -1216 -50 -146 -73 -195 -73 -158 0 18 -129
292 -156 331 -15 22 -32 39 -39 39 -33 0 -116 -280 -189 -640 -48 -238 -64
-350 -72 -515 -4 -77 -10 -148 -13 -157 -5 -13 -29 13 -96 103 -86 115 -173
209 -194 209 -18 0 -44 -111 -66 -285 -42 -339 -57 -859 -35 -1195 5 -79 8
-145 7 -147 -2 -1 -34 37 -72 85 -197 246 -235 251 -235 32 0 -386 79 -850
208 -1215 63 -180 88 -235 243 -549 71 -143 127 -261 125 -263 -4 -4 -110 38
-290 116 -134 59 -225 86 -239 72 -23 -23 43 -193 169 -441 155 -306 278 -485
458 -665 180 -181 306 -272 521 -380 105 -53 140 -75 140 -89 0 -14 -43 -46
-155 -113 -390 -238 -660 -435 -660 -482 0 -49 641 -154 1090 -180 102 -6 222
-14 267 -17 l83 -6 -119 -126 c-137 -146 -210 -231 -314 -369 -140 -186 -258
-376 -242 -391 16 -16 632 43 957 93 92 14 183 25 203 25 44 0 46 9 -41 -182
-65 -142 -234 -568 -234 -589 0 -17 172 -5 290 21 274 59 549 138 679 195 41
18 80 31 88 28 21 -8 15 -57 -33 -263 -56 -241 -92 -424 -100 -511 -6 -56 -4
-67 10 -72 18 -7 244 72 410 142 165 71 354 164 485 239 69 40 125 72 126 72
1 0 -15 -48 -36 -107 -104 -297 -665 -1928 -664 -1931 1 -1 479 320 1061 715
582 394 1160 785 1283 868 l224 152 1171 -815 c644 -448 1208 -841 1254 -873
45 -33 82 -58 82 -56 0 1 -151 455 -335 1007 -184 553 -335 1008 -335 1012 0
17 45 7 104 -23 33 -17 153 -83 266 -147 324 -183 453 -238 583 -249 l67 -6 0
34 c0 98 -108 668 -156 821 -4 13 17 7 93 -27 135 -59 257 -98 468 -150 215
-53 402 -87 453 -83 32 3 37 7 40 31 6 52 -89 312 -203 556 -36 77 -68 154
-71 171 -6 27 -4 30 19 30 13 0 76 -9 138 -20 208 -37 302 -49 578 -75 151
-14 304 -30 341 -35 75 -11 110 -5 110 19 0 22 -82 157 -175 291 -101 144
-225 298 -359 445 -124 138 -127 128 35 139 423 31 664 58 904 102 247 44 355
76 355 104 0 10 -33 49 -73 87 -122 113 -263 207 -711 471 l-49 29 159 82 c87
45 198 110 246 144 372 266 651 647 862 1179 58 147 63 188 23 188 -13 0 -97
-36 -187 -80 -164 -80 -254 -115 -271 -104 -13 8 -11 46 5 90 8 22 60 134 116
249 189 389 257 571 318 855 47 217 57 321 88 920 l6 124 -48 -54 c-81 -92
-187 -204 -215 -227 l-26 -22 -6 75 c-4 41 -4 175 -1 297 12 401 -42 1077 -96
1212 l-12 30 -49 -53 c-27 -29 -85 -107 -129 -173 -44 -66 -82 -114 -84 -107
-2 7 -12 69 -21 138 -36 280 -89 554 -155 805 -33 124 -98 319 -114 340 -14
20 -15 20 -39 -3 -26 -25 -70 -111 -137 -270 l-44 -103 -17 48 c-10 26 -45
127 -79 223 -102 288 -216 569 -300 737 -133 268 -400 653 -453 653 -13 0 -20
-48 -27 -175 -5 -77 -13 -152 -19 -167 -25 -66 -64 -37 -416 311 -444 439
-606 569 -942 755 -202 112 -597 273 -798 325 -88 23 -105 25 -105 12z"/>
</g>
</svg>
